<svg width="586" height="58" viewBox="0 0 586 58" fill="none" xmlns="http://www.w3.org/2000/svg">
<g clip-path="url(#clip0_632_1309)">
<path d="M402.29 35.0909H405.023L411.449 50.7869H411.67L418.097 35.0909H420.83V54H418.688V39.6335H418.503L412.594 54H410.526L404.616 39.6335H404.432V54H402.29V35.0909ZM441.375 44.5455C441.375 46.5398 441.015 48.2633 440.295 49.7159C439.575 51.1686 438.587 52.2888 437.331 53.0767C436.075 53.8646 434.641 54.2585 433.029 54.2585C431.416 54.2585 429.982 53.8646 428.726 53.0767C427.47 52.2888 426.482 51.1686 425.762 49.7159C425.042 48.2633 424.682 46.5398 424.682 44.5455C424.682 42.5511 425.042 40.8277 425.762 39.375C426.482 37.9223 427.47 36.8021 428.726 36.0142C429.982 35.2263 431.416 34.8324 433.029 34.8324C434.641 34.8324 436.075 35.2263 437.331 36.0142C438.587 36.8021 439.575 37.9223 440.295 39.375C441.015 40.8277 441.375 42.5511 441.375 44.5455ZM439.159 44.5455C439.159 42.9081 438.885 41.5263 438.338 40.3999C437.796 39.2734 437.06 38.4209 436.131 37.8423C435.208 37.2637 434.173 36.9744 433.029 36.9744C431.884 36.9744 430.847 37.2637 429.917 37.8423C428.994 38.4209 428.258 39.2734 427.71 40.3999C427.169 41.5263 426.898 42.9081 426.898 44.5455C426.898 46.1828 427.169 47.5646 427.71 48.6911C428.258 49.8175 428.994 50.67 429.917 51.2486C430.847 51.8272 431.884 52.1165 433.029 52.1165C434.173 52.1165 435.208 51.8272 436.131 51.2486C437.06 50.67 437.796 49.8175 438.338 48.6911C438.885 47.5646 439.159 46.1828 439.159 44.5455ZM451.061 54H445.225V35.0909H451.319C453.153 35.0909 454.723 35.4695 456.028 36.2266C457.333 36.9775 458.333 38.0578 459.029 39.4673C459.724 40.8707 460.072 42.5511 460.072 44.5085C460.072 46.4782 459.721 48.174 459.019 49.5959C458.318 51.0116 457.296 52.1011 455.954 52.8643C454.612 53.6214 452.981 54 451.061 54ZM447.515 51.9688H450.913C452.476 51.9688 453.772 51.6671 454.8 51.0639C455.828 50.4607 456.594 49.602 457.099 48.4879C457.604 47.3738 457.856 46.0473 457.856 44.5085C457.856 42.982 457.607 41.6679 457.108 40.5661C456.61 39.4581 455.865 38.6087 454.874 38.0178C453.883 37.4207 452.649 37.1222 451.171 37.1222H447.515V51.9688Z" fill="#37A8DB"/>
<path d="M256.199 1.7998H257.699C258.399 1.7998 258.599 1.9998 258.599 2.7998V53.0998C258.599 53.7998 258.399 54.0998 257.699 54.0998H256.199C255.499 54.0998 255.199 53.8998 255.199 53.0998V2.7998C255.199 2.0998 255.499 1.7998 256.199 1.7998Z" fill="#58585A"/>
<path d="M308.2 2.7998V53.0998C308.2 53.7998 308 54.0998 307.3 54.0998H305.8C305.3 54.0998 305.1 53.9998 304.8 53.4998L278.7 16.2998C276.3 12.7998 274.3 8.8998 272.7 6.6998H272.6C272.6 9.4998 273 14.1998 273 18.7998V53.0998C273 53.7998 272.8 54.0998 272.1 54.0998H270.6C269.9 54.0998 269.6 53.8998 269.6 53.0998V2.7998C269.6 2.0998 269.8 1.7998 270.6 1.7998H272.1C272.7 1.7998 273 2.0998 273.1 2.2998L298.5 38.5998C301.2 42.4998 303.5 46.5998 305.3 49.0998H305.4C305.4 45.8998 304.9 40.8998 304.9 35.8998V2.6998C304.9 1.9998 305.1 1.7998 305.9 1.7998H307.4C308 1.7998 308.2 2.0998 308.2 2.7998Z" fill="#58585A"/>
<path d="M360.3 53.9999H359C357.9 53.9999 357.5 53.8999 357.4 53.1999L350.9 36.8999H326.5L320 53.1999C319.8 53.8999 319.4 53.9999 318.3 53.9999H317.1C316.4 53.9999 316.2 53.5999 316.4 53.0999L336.7 2.2999C337 1.5999 337.3 1.3999 337.9 1.3999H339.4C340.1 1.3999 340.4 1.5999 340.6 2.2999L361 53.1999C361.2 53.6999 361.1 53.9999 360.3 53.9999ZM338.6 4.7999H338.4C338.4 5.1999 338.3 6.4999 337.8 7.9999L327.4 34.0999H349.8L339.4 7.9999C338.9 6.4999 338.7 5.1999 338.6 4.7999Z" fill="#58585A"/>
<path d="M400.6 2.6998L381 53.1998C380.8 53.8998 380.4 54.0998 379.7 54.0998H378.3C377.6 54.0998 377.3 53.8998 377 53.2998L357.4 2.6998C357.2 2.1998 357.3 1.7998 358 1.7998H359.4C360.5 1.7998 360.8 1.8998 361 2.5998L377.3 44.8998C378 46.6998 378.6 48.8998 378.9 49.7998H379.1C379.5 48.7998 380 46.7998 380.6 44.8998L397 2.5998C397.2 1.8998 397.6 1.7998 398.6 1.7998H400C400.7 1.7998 400.8 2.1998 400.6 2.6998Z" fill="#58585A"/>
<path d="M212.2 40.6002C212.3 40.7002 212.4 40.8002 212.6 40.8002C212.7 40.8002 212.9 40.7002 213 40.6002C213.8 39.8002 215.4 38.0002 216.9 35.8002C218.9 33.0002 221.2 28.9002 221.2 25.3002C221.2 20.5002 217.3 16.7002 212.6 16.7002C207.8 16.7002 204 20.6002 204 25.3002C204 28.9002 206.4 33.0002 208.3 35.8002C209.9 38.0002 211.4 39.7002 212.2 40.6002ZM212.6 19.9002C215.5 19.9002 217.9 22.3002 217.9 25.2002C217.9 28.1002 215.5 30.5002 212.6 30.5002C209.7 30.5002 207.3 28.1002 207.3 25.2002C207.3 22.2002 209.7 19.9002 212.6 19.9002Z" fill="#37A8DB"/>
<path d="M199.6 11.3003C199.6 9.60029 198.2 8.30029 196.6 8.30029C194.9 8.30029 193.6 9.70029 193.6 11.3003C193.6 13.0003 195 14.3003 196.6 14.3003C197 14.3003 197.4 14.2003 197.7 14.1003L203.9 20.3003L205.6 18.6003L199.4 12.4003C199.5 12.1003 199.6 11.7003 199.6 11.3003Z" fill="#58585A"/>
<path d="M196.6 -0.399902C190.1 -0.399902 184.9 4.8001 184.9 11.3001C184.9 17.8001 190.1 23.0001 196.6 23.0001C198.3 23.0001 199.8 22.6001 201.3 22.0001L199.5 20.2001C198.6 20.5001 197.7 20.6001 196.7 20.6001C191.6 20.6001 187.4 16.4001 187.4 11.3001C187.4 6.2001 191.6 2.0001 196.7 2.0001C201.8 2.0001 206 6.2001 206 11.3001C206 12.6001 205.7 13.8001 205.3 14.9001L207.1 16.7001C207.9 15.1001 208.4 13.3001 208.4 11.3001C208.3 4.8001 203.1 -0.399902 196.6 -0.399902Z" fill="#58585A"/>
<path d="M225.602 11.3003C225.602 9.60029 227.002 8.30029 228.602 8.30029C230.302 8.30029 231.602 9.70029 231.602 11.3003C231.602 13.0003 230.202 14.3003 228.602 14.3003C228.202 14.3003 227.802 14.2003 227.502 14.1003L221.302 20.3003L219.602 18.6003L225.802 12.4003C225.602 12.1003 225.602 11.7003 225.602 11.3003Z" fill="#58585A"/>
<path d="M228.601 -0.399902C235.101 -0.399902 240.301 4.8001 240.301 11.3001C240.301 17.8001 235.101 23.0001 228.601 23.0001C226.901 23.0001 225.401 22.6001 223.901 22.0001L225.701 20.2001C226.601 20.5001 227.501 20.6001 228.501 20.6001C233.601 20.6001 237.801 16.4001 237.801 11.3001C237.801 6.2001 233.601 2.0001 228.501 2.0001C223.401 2.0001 219.201 6.2001 219.201 11.3001C219.201 12.6001 219.501 13.8001 219.901 14.9001L218.101 16.7001C217.301 15.1001 216.801 13.3001 216.801 11.3001C216.901 4.8001 222.101 -0.399902 228.601 -0.399902Z" fill="#58585A"/>
<path d="M199.6 44.2002C199.6 45.9002 198.2 47.2002 196.6 47.2002C194.9 47.2002 193.6 45.8002 193.6 44.2002C193.6 42.5002 195 41.2002 196.6 41.2002C197 41.2002 197.4 41.3002 197.7 41.4002L203.9 35.2002L205.6 36.9002L199.4 43.1002C199.5 43.4002 199.6 43.8002 199.6 44.2002Z" fill="#58585A"/>
<path d="M196.6 55.9C190.1 55.9 184.9 50.7 184.9 44.2C184.9 37.7 190.1 32.5 196.6 32.5C198.3 32.5 199.8 32.9 201.3 33.5L199.5 35.3C198.6 35 197.7 34.9 196.7 34.9C191.6 34.9 187.4 39.1 187.4 44.2C187.4 49.3 191.6 53.5 196.7 53.5C201.8 53.5 206 49.3 206 44.2C206 42.9 205.7 41.7 205.3 40.6L207.1 38.8C207.9 40.4 208.4 42.2 208.4 44.2C208.3 50.7 203.1 55.9 196.6 55.9Z" fill="#58585A"/>
<path d="M225.602 44.2002C225.602 45.9002 227.002 47.2002 228.602 47.2002C230.302 47.2002 231.602 45.8002 231.602 44.2002C231.602 42.5002 230.202 41.2002 228.602 41.2002C228.202 41.2002 227.802 41.3002 227.502 41.4002L221.302 35.2002L219.602 36.9002L225.802 43.1002C225.602 43.4002 225.602 43.8002 225.602 44.2002Z" fill="#58585A"/>
<path d="M228.601 55.9C235.101 55.9 240.301 50.7 240.301 44.2C240.301 37.7 235.101 32.5 228.601 32.5C226.901 32.5 225.401 32.9 223.901 33.5L225.701 35.3C226.601 35 227.501 34.9 228.501 34.9C233.601 34.9 237.801 39.1 237.801 44.2C237.801 49.3 233.601 53.5 228.501 53.5C223.401 53.5 219.201 49.3 219.201 44.2C219.201 42.9 219.501 41.7 219.901 40.6L218.101 38.8C217.301 40.4 216.801 42.2 216.801 44.2C216.901 50.7 222.101 55.9 228.601 55.9Z" fill="#58585A"/>
</g>
<defs>
<clipPath id="clip0_632_1309">
<rect width="585.1" height="58" fill="white"/>
</clipPath>
</defs>
</svg>
