<svg width="659" height="68" viewBox="0 0 659 68" fill="none" xmlns="http://www.w3.org/2000/svg">
<path d="M82.1006 5.40039H83.7006C84.4006 5.40039 84.6006 5.60039 84.6006 6.40039V60.0004C84.6006 60.8004 84.4006 61.0004 83.7006 61.0004H82.1006C81.3006 61.0004 81.1006 60.8004 81.1006 60.0004V6.40039C81.0006 5.60039 81.3006 5.40039 82.1006 5.40039Z" fill="white"/>
<path d="M137.602 6.40039V60.0004C137.602 60.8004 137.402 61.0004 136.702 61.0004H135.102C134.602 61.0004 134.302 60.9004 134.002 60.4004L106.202 20.7004C103.602 17.0004 101.502 12.8004 99.8015 10.5004H99.6016C99.6016 13.5004 100.102 18.5004 100.102 23.4004V59.9004C100.102 60.7004 99.9016 60.9004 99.2016 60.9004H97.6016C96.8016 60.9004 96.6016 60.7004 96.6016 59.9004V6.40039C96.6016 5.60039 96.8016 5.40039 97.6016 5.40039H99.2016C99.8016 5.40039 100.102 5.70039 100.302 5.90039L127.302 44.6004C130.202 48.8004 132.602 53.1004 134.502 55.8004H134.702C134.702 52.4004 134.202 47.1004 134.202 41.7004V6.30039C134.202 5.60039 134.402 5.40039 135.202 5.40039H136.802C137.302 5.40039 137.602 5.60039 137.602 6.40039Z" fill="white"/>
<path d="M193 61H191.6C190.4 61 190 60.8 189.9 60.1L182.9 42.8H156.9L150 60.1C149.8 60.8 149.4 61 148.2 61H146.9C146.1 61 146 60.6 146.2 60.1L167.9 5.9C168.2 5.2 168.5 5 169.2 5H170.8C171.5 5 171.9 5.2 172.1 5.9L193.8 60.1C194 60.6 193.9 61 193 61ZM170 8.6H169.8C169.8 9 169.7 10.4 169.2 12L158.1 39.8H182L170.8 11.9C170.2 10.4 170 9 170 8.6Z" fill="white"/>
<path d="M236.001 6.30039L215.101 60.1004C214.901 60.8004 214.501 61.0004 213.801 61.0004H212.301C211.501 61.0004 211.201 60.8004 211.001 60.1004L190.001 6.30039C189.801 5.80039 189.901 5.40039 190.601 5.40039H192.101C193.301 5.40039 193.601 5.60039 193.801 6.30039L211.201 51.4004C211.901 53.4004 212.501 55.6004 212.901 56.7004H213.101C213.501 55.7004 214.001 53.5004 214.701 51.4004L232.001 6.30039C232.201 5.60039 232.601 5.40039 233.701 5.40039H235.201C236.201 5.40039 236.301 5.70039 236.001 6.30039Z" fill="white"/>
<path d="M35.2004 46.5996C35.3004 46.6996 35.4004 46.7996 35.6004 46.7996C35.7004 46.7996 35.9004 46.6996 36.0004 46.5996C36.8004 45.6996 38.5004 43.7996 40.2004 41.4996C42.3004 38.4996 44.8004 34.1996 44.8004 30.2996C44.8004 25.1996 40.7004 21.0996 35.6004 21.0996C30.5004 21.0996 26.4004 25.1996 26.4004 30.2996C26.4004 34.1996 28.9004 38.4996 31.0004 41.4996C32.7004 43.8996 34.4004 45.6996 35.2004 46.5996ZM35.6004 24.5996C38.7004 24.5996 41.2004 27.0996 41.2004 30.1996C41.2004 33.2996 38.7004 35.7996 35.6004 35.7996C32.5004 35.7996 30.0004 33.2996 30.0004 30.1996C30.0004 27.0996 32.5004 24.5996 35.6004 24.5996Z" fill="#37A8DB"/>
<path d="M21.8004 15.4002C21.8004 13.6002 20.4004 12.2002 18.6004 12.2002C16.8004 12.2002 15.4004 13.6002 15.4004 15.4002C15.4004 17.2002 16.8004 18.6002 18.6004 18.6002C19.0004 18.6002 19.4004 18.5002 19.8004 18.4002L26.4004 25.0002L28.2004 23.2002L21.6004 16.6002C21.7004 16.3002 21.8004 15.9002 21.8004 15.4002Z" fill="white"/>
<path d="M18.5 3C11.6 3 6 8.6 6 15.5C6 22.4 11.6 28 18.5 28C20.3 28 22 27.6 23.5 27L21.5 25C20.5 25.3 19.5 25.5 18.5 25.5C13 25.5 8.60001 21 8.60001 15.6C8.60001 10.2 13.1 5.7 18.5 5.7C24 5.7 28.4 10.2 28.4 15.6C28.4 17 28.1 18.2 27.6 19.4L29.5 21.3C30.4 19.6 30.9 17.6 30.9 15.6C31 8.6 25.4 3 18.5 3Z" fill="white"/>
<path d="M49.4 15.4002C49.4 13.6002 50.8 12.2002 52.6 12.2002C54.4 12.2002 55.8 13.6002 55.8 15.4002C55.8 17.2002 54.4 18.6002 52.6 18.6002C52.2 18.6002 51.8 18.5002 51.4 18.4002L44.8 25.0002L43 23.2002L49.6 16.6002C49.5 16.3002 49.4 15.9002 49.4 15.4002Z" fill="white"/>
<path d="M52.5992 3C59.4992 3 65.0992 8.6 65.0992 15.5C65.0992 22.4 59.4992 28 52.5992 28C50.7992 28 49.0992 27.6 47.5992 27L49.5992 25C50.5992 25.3 51.5992 25.5 52.5992 25.5C58.0992 25.5 62.4992 21 62.4992 15.6C62.4992 10.2 58.0992 5.5 52.5992 5.5C47.0992 5.5 42.6992 10 42.6992 15.4C42.6992 16.8 42.9992 18 43.4992 19.2L41.5992 21.1C40.6992 19.4 40.1992 17.4 40.1992 15.4C40.1992 8.6 45.7992 3 52.5992 3Z" fill="white"/>
<path d="M21.8004 50.5004C21.8004 52.3004 20.4004 53.7004 18.6004 53.7004C16.8004 53.7004 15.4004 52.3004 15.4004 50.5004C15.4004 48.7004 16.8004 47.3004 18.6004 47.3004C19.0004 47.3004 19.4004 47.4004 19.8004 47.5004L26.4004 40.9004L28.2004 42.7004L21.6004 49.3004C21.7004 49.7004 21.8004 50.1004 21.8004 50.5004Z" fill="white"/>
<path d="M18.5 63C11.6 63 6 57.4 6 50.5C6 43.6 11.6 38 18.5 38C20.3 38 22 38.4 23.5 39L21.5 41C20.5 40.7 19.5 40.5 18.5 40.5C13 40.5 8.60001 45 8.60001 50.4C8.60001 55.8 13.1 60.3 18.5 60.3C24 60.3 28.4 55.8 28.4 50.4C28.4 49 28.1 47.8 27.6 46.6L29.5 44.7C30.4 46.4 30.9 48.4 30.9 50.4C31 57.4 25.4 63 18.5 63Z" fill="white"/>
<path d="M49.4 50.5004C49.4 52.3004 50.8 53.7004 52.6 53.7004C54.4 53.7004 55.8 52.3004 55.8 50.5004C55.8 48.7004 54.4 47.3004 52.6 47.3004C52.2 47.3004 51.8 47.4004 51.4 47.5004L44.8 40.9004L43 42.7004L49.6 49.3004C49.5 49.7004 49.4 50.1004 49.4 50.5004Z" fill="white"/>
<path d="M52.5992 63C59.4992 63 65.0992 57.4 65.0992 50.5C65.0992 43.6 59.4992 38 52.5992 38C50.7992 38 49.0992 38.4 47.5992 39L49.5992 41C50.5992 40.7 51.5992 40.5 52.5992 40.5C58.0992 40.5 62.4992 45 62.4992 50.4C62.4992 55.8 57.9992 60.3 52.5992 60.3C47.1992 60.3 42.6992 55.8 42.6992 50.4C42.6992 49 42.9992 47.8 43.4992 46.6L41.5992 44.7C40.6992 46.4 40.1992 48.4 40.1992 50.4C40.1992 57.4 45.7992 63 52.5992 63Z" fill="white"/>
<path d="M238.29 42.0909H241.023L247.449 57.7869H247.67L254.097 42.0909H256.83V61H254.688V46.6335H254.503L248.594 61H246.526L240.616 46.6335H240.432V61H238.29V42.0909ZM277.375 51.5455C277.375 53.5398 277.015 55.2633 276.295 56.7159C275.575 58.1686 274.587 59.2888 273.331 60.0767C272.075 60.8646 270.641 61.2585 269.029 61.2585C267.416 61.2585 265.982 60.8646 264.726 60.0767C263.47 59.2888 262.482 58.1686 261.762 56.7159C261.042 55.2633 260.682 53.5398 260.682 51.5455C260.682 49.5511 261.042 47.8277 261.762 46.375C262.482 44.9223 263.47 43.8021 264.726 43.0142C265.982 42.2263 267.416 41.8324 269.029 41.8324C270.641 41.8324 272.075 42.2263 273.331 43.0142C274.587 43.8021 275.575 44.9223 276.295 46.375C277.015 47.8277 277.375 49.5511 277.375 51.5455ZM275.159 51.5455C275.159 49.9081 274.885 48.5263 274.338 47.3999C273.796 46.2734 273.06 45.4209 272.131 44.8423C271.208 44.2637 270.173 43.9744 269.029 43.9744C267.884 43.9744 266.847 44.2637 265.917 44.8423C264.994 45.4209 264.258 46.2734 263.71 47.3999C263.169 48.5263 262.898 49.9081 262.898 51.5455C262.898 53.1828 263.169 54.5646 263.71 55.6911C264.258 56.8175 264.994 57.67 265.917 58.2486C266.847 58.8272 267.884 59.1165 269.029 59.1165C270.173 59.1165 271.208 58.8272 272.131 58.2486C273.06 57.67 273.796 56.8175 274.338 55.6911C274.885 54.5646 275.159 53.1828 275.159 51.5455ZM287.061 61H281.225V42.0909H287.319C289.153 42.0909 290.723 42.4695 292.028 43.2266C293.333 43.9775 294.333 45.0578 295.029 46.4673C295.724 47.8707 296.072 49.5511 296.072 51.5085C296.072 53.4782 295.721 55.174 295.019 56.5959C294.318 58.0116 293.296 59.1011 291.954 59.8643C290.612 60.6214 288.981 61 287.061 61ZM283.515 58.9688H286.913C288.476 58.9688 289.772 58.6671 290.8 58.0639C291.828 57.4607 292.594 56.602 293.099 55.4879C293.604 54.3738 293.856 53.0473 293.856 51.5085C293.856 49.982 293.607 48.6679 293.108 47.5661C292.61 46.4581 291.865 45.6087 290.874 45.0178C289.883 44.4207 288.649 44.1222 287.171 44.1222H283.515V58.9688Z" fill="#37A8DB"/>
</svg>
