<svg width="1399" height="479" viewBox="0 0 1399 479" fill="none" xmlns="http://www.w3.org/2000/svg">
<rect x="700.287" y="318.32" width="476.7" height="127" rx="60.5" transform="rotate(-15 700.287 318.32)" fill="#65D4FB" stroke="#DDDDDD" stroke-width="7"/>
<rect x="237.157" y="194.94" width="476.7" height="127" rx="60.5" transform="rotate(15 237.157 194.94)" fill="#65D4FB" stroke="#DDDDDD" stroke-width="7"/>
<rect x="700.287" y="253.32" width="580.35" height="127" rx="60.5" transform="rotate(-15 700.287 253.32)" fill="#52BEE7" stroke="#DDDDDD" stroke-width="7"/>
<rect x="131.157" y="103.114" width="580.35" height="127" rx="60.5" transform="rotate(15 131.157 103.114)" fill="#52BEE7" stroke="#DDDDDD" stroke-width="7"/>
<rect x="700.287" y="181.32" width="684" height="127" rx="60.5" transform="rotate(-15 700.287 181.32)" fill="#36A8DB" stroke="#DDDDDD" stroke-width="7"/>
<rect x="37.1565" y="4.28661" width="684" height="127" rx="60.5" transform="rotate(15 37.1565 4.28661)" fill="#36A8DB" stroke="#DDDDDD" stroke-width="7"/>
<rect x="471" y="12" width="462" height="462" rx="231" fill="white"/>
<rect x="471" y="12" width="462" height="462" rx="231" stroke="#727272" stroke-width="10"/>
<g filter="url(#filter0_d_643_1298)">
<path d="M699.758 313.022C700.311 313.567 700.865 314.112 701.973 314.112C702.526 314.112 703.634 313.567 704.188 313.022C708.618 308.663 717.478 298.854 725.784 286.865C736.859 271.607 749.596 249.265 749.596 229.647C749.596 203.49 727.999 182.782 701.973 182.782C675.392 182.782 654.35 204.035 654.35 229.647C654.35 249.265 667.64 271.607 678.161 286.865C687.021 298.854 695.328 308.118 699.758 313.022ZM701.973 200.22C718.032 200.22 731.322 213.299 731.322 229.102C731.322 244.905 718.032 257.984 701.973 257.984C685.914 257.984 672.624 244.905 672.624 229.102C672.624 212.754 685.914 200.22 701.973 200.22Z" fill="url(#paint0_linear_643_1298)"/>
<path d="M701.973 183.282C727.734 183.282 749.095 203.777 749.096 229.646C749.096 239.355 745.942 249.771 741.389 259.683C737.122 268.97 731.64 277.787 726.42 285.124L725.38 286.571L725.373 286.581C717.604 297.794 709.349 307.095 704.715 311.789L703.837 312.666C703.61 312.89 703.244 313.134 702.859 313.323C702.46 313.52 702.13 313.612 701.973 313.612C701.087 313.612 700.66 313.209 700.117 312.675C695.687 307.77 687.401 298.526 678.563 286.568H678.562C673.311 278.952 667.381 269.583 662.763 259.68C658.139 249.765 654.85 239.351 654.85 229.646C654.85 204.315 675.665 183.282 701.973 183.282ZM701.973 199.721C685.652 199.721 672.123 212.464 672.123 229.102C672.123 245.188 685.645 258.483 701.973 258.483C718.3 258.483 731.821 245.188 731.821 229.102C731.821 213.015 718.3 199.721 701.973 199.721Z" stroke="#727272"/>
</g>
<g filter="url(#filter1_d_643_1298)">
<path d="M629.979 153.348C629.979 144.084 622.227 137 613.367 137C603.953 137 596.754 144.629 596.754 153.348C596.754 162.612 604.506 169.696 613.367 169.696C615.582 169.696 617.797 169.151 619.458 168.606L653.791 202.392L663.205 193.129L628.872 159.342C629.425 157.708 629.979 155.528 629.979 153.348Z" fill="#727272"/>
<path d="M613.389 89.5996C577.395 89.5996 548.6 117.936 548.6 153.357C548.6 188.778 577.395 217.115 613.389 217.115C622.803 217.115 631.109 214.935 639.416 211.666L629.448 201.857C624.464 203.492 619.48 204.036 613.943 204.036C585.701 204.036 562.444 181.149 562.444 153.357C562.444 125.565 585.701 102.678 613.943 102.678C642.184 102.678 665.442 125.565 665.442 153.357C665.442 160.441 663.781 166.981 661.566 172.975L671.533 182.784C675.964 174.065 678.732 164.256 678.732 153.357C678.178 117.936 649.383 89.5996 613.389 89.5996Z" fill="#727272"/>
<path d="M773.985 153.348C773.985 144.084 781.738 137 790.598 137C800.012 137 807.21 144.629 807.21 153.348C807.21 162.612 799.458 169.696 790.598 169.696C788.383 169.696 786.168 169.151 784.506 168.606L750.174 202.392L740.76 193.129L775.093 159.342C773.985 157.708 773.985 155.528 773.985 153.348Z" fill="#727272"/>
<path d="M790.611 89.5996C826.605 89.5996 855.4 117.936 855.4 153.357C855.4 188.778 826.605 217.115 790.611 217.115C781.197 217.115 772.891 214.935 764.584 211.666L774.552 201.857C779.536 203.492 784.52 204.036 790.057 204.036C818.299 204.036 841.556 181.149 841.556 153.357C841.556 125.565 818.299 102.678 790.057 102.678C761.816 102.678 738.558 125.565 738.558 153.357C738.558 160.441 740.219 166.981 742.434 172.975L732.467 182.784C728.036 174.065 725.268 164.256 725.268 153.357C725.821 117.936 754.617 89.5996 790.611 89.5996Z" fill="#727272"/>
<path d="M629.979 332.655C629.979 341.919 622.227 349.003 613.367 349.003C603.953 349.003 596.754 341.374 596.754 332.655C596.754 323.391 604.506 316.307 613.367 316.307C615.582 316.307 617.797 316.852 619.458 317.396L653.791 283.61L663.205 292.874L628.872 326.66C629.425 328.295 629.979 330.475 629.979 332.655Z" fill="#727272"/>
<path d="M613.389 396.401C577.395 396.401 548.6 368.064 548.6 332.643C548.6 297.223 577.395 268.886 613.389 268.886C622.803 268.886 631.109 271.065 639.416 274.335L629.448 284.144C624.464 282.509 619.48 281.964 613.943 281.964C585.701 281.964 562.444 304.852 562.444 332.643C562.444 360.435 585.701 383.323 613.943 383.323C642.184 383.323 665.442 360.435 665.442 332.643C665.442 325.559 663.781 319.02 661.566 313.026L671.533 303.217C675.964 311.936 678.732 321.745 678.732 332.643C678.178 368.064 649.383 396.401 613.389 396.401Z" fill="#727272"/>
<path d="M773.985 332.655C773.985 341.919 781.738 349.003 790.598 349.003C800.012 349.003 807.21 341.374 807.21 332.655C807.21 323.391 799.458 316.307 790.598 316.307C788.383 316.307 786.168 316.852 784.506 317.396L750.174 283.61L740.76 292.874L775.093 326.66C773.985 328.295 773.985 330.475 773.985 332.655Z" fill="#727272"/>
<path d="M790.611 396.401C826.605 396.401 855.4 368.064 855.4 332.643C855.4 297.223 826.605 268.886 790.611 268.886C781.197 268.886 772.891 271.065 764.584 274.335L774.552 284.144C779.536 282.509 784.52 281.964 790.057 281.964C818.299 281.964 841.556 304.852 841.556 332.643C841.556 360.435 818.299 383.323 790.057 383.323C761.816 383.323 738.558 360.435 738.558 332.643C738.558 325.559 740.219 319.02 742.434 313.026L732.467 303.217C728.036 311.936 725.268 321.745 725.268 332.643C725.821 368.064 754.617 396.401 790.611 396.401Z" fill="#727272"/>
</g>
<defs>
<filter id="filter0_d_643_1298" x="652.35" y="182.782" width="99.2461" height="135.33" filterUnits="userSpaceOnUse" color-interpolation-filters="sRGB">
<feFlood flood-opacity="0" result="BackgroundImageFix"/>
<feColorMatrix in="SourceAlpha" type="matrix" values="0 0 0 0 0 0 0 0 0 0 0 0 0 0 0 0 0 0 127 0" result="hardAlpha"/>
<feOffset dy="2"/>
<feGaussianBlur stdDeviation="1"/>
<feComposite in2="hardAlpha" operator="out"/>
<feColorMatrix type="matrix" values="0 0 0 0 0 0 0 0 0 0 0 0 0 0 0 0 0 0 0.2 0"/>
<feBlend mode="normal" in2="BackgroundImageFix" result="effect1_dropShadow_643_1298"/>
<feBlend mode="normal" in="SourceGraphic" in2="effect1_dropShadow_643_1298" result="shape"/>
</filter>
<filter id="filter1_d_643_1298" x="546.6" y="89.5996" width="310.801" height="310.802" filterUnits="userSpaceOnUse" color-interpolation-filters="sRGB">
<feFlood flood-opacity="0" result="BackgroundImageFix"/>
<feColorMatrix in="SourceAlpha" type="matrix" values="0 0 0 0 0 0 0 0 0 0 0 0 0 0 0 0 0 0 127 0" result="hardAlpha"/>
<feOffset dy="2"/>
<feGaussianBlur stdDeviation="1"/>
<feComposite in2="hardAlpha" operator="out"/>
<feColorMatrix type="matrix" values="0 0 0 0 0 0 0 0 0 0 0 0 0 0 0 0 0 0 0.2 0"/>
<feBlend mode="normal" in2="BackgroundImageFix" result="effect1_dropShadow_643_1298"/>
<feBlend mode="normal" in="SourceGraphic" in2="effect1_dropShadow_643_1298" result="shape"/>
</filter>
<linearGradient id="paint0_linear_643_1298" x1="701.973" y1="182.782" x2="701.973" y2="314.112" gradientUnits="userSpaceOnUse">
<stop stop-color="#36A8DB"/>
<stop offset="1" stop-color="#65D4FB"/>
</linearGradient>
</defs>
</svg>
